<svg width="120" height="32" viewBox="0 0 120 32" fill="none" xmlns="http://www.w3.org/2000/svg">
<g clip-path="url(#clip0_4908_3585)">
<path d="M11.434 6.60716L22.5853 6.60482L26.3756 0H0L13.1866 22.9618L16.9956 16.3359L11.434 6.60716Z" fill="black"/>
<path d="M25.3398 6.60247H32.9368L36.7271 0H29.1348L25.3398 6.60247Z" fill="black"/>
<path d="M14.5684 25.3649L18.3657 31.9744L31.4425 9.20752H23.8478L14.5684 25.3649Z" fill="black"/>
<path d="M59.9132 0H43.0273L44.78 3.23664H50.7365V15.6124H53.9543V3.23664H61.6658L59.9132 0Z" fill="black"/>
<path d="M75.6091 15.6148H79.2732L71.2205 0.763359C70.9798 0.307692 70.5031 0 69.954 0C69.4048 0 68.9281 0.310041 68.6874 0.763359L60.6348 15.6148H64.2989V15.6124H73.2793L71.5266 12.3782H66.0515L69.9516 5.18614L75.6067 15.6148H75.6091Z" fill="black"/>
<path d="M107.205 0C104.616 0 102.518 2.10922 102.518 4.71168C102.518 7.31415 104.616 9.42337 107.205 9.42337H112.559L110.806 6.18908H107.205C106.394 6.18908 105.735 5.52672 105.735 4.71168C105.735 3.89665 106.394 3.23429 107.205 3.23429H119.999L118.247 0H107.208H107.205Z" fill="black"/>
<path d="M115.313 6.18896H113.13L114.883 9.42326H115.311C116.121 9.42326 116.78 10.0856 116.78 10.9007C116.78 11.7157 116.121 12.378 115.311 12.378H103.094L104.846 15.6123H115.311C117.9 15.6123 119.998 13.5031 119.998 10.9007C119.998 8.29818 117.9 6.18896 115.311 6.18896H115.313Z" fill="black"/>
<path d="M85.5154 9.42337H92.6591L96.0358 15.6124H99.2582L95.8465 9.29654C97.9146 8.80564 99.4545 6.94069 99.4545 4.71168C99.4545 2.11157 97.3561 0 94.7669 0H85.8052L87.5578 3.23429H94.7645C95.5754 3.23429 96.2344 3.8943 96.2344 4.71168C96.2344 5.52907 95.5754 6.18908 94.7645 6.18908L85.5131 6.20317V3.75338L83.4754 0H82.293V15.6077H85.5201L85.5154 9.42337Z" fill="black"/>
<path d="M81.5049 20.9467C81.5049 20.801 81.3834 20.6836 81.2361 20.6836H69.1572C69.066 20.6836 68.9936 20.7564 68.9936 20.848L68.9889 22.2033C68.9889 22.2949 69.0614 22.3677 69.1525 22.3677C69.1525 22.3677 71.1014 22.3677 71.1902 22.3724C71.3795 22.3794 71.4052 22.4241 71.3211 22.6026C71.314 22.6214 68.8627 27.3871 68.8066 27.5139H70.1503C70.3092 27.5139 70.4377 27.6431 70.4377 27.8028C70.4377 29.0688 70.4377 30.3348 70.4377 31.6008C70.4377 31.8051 70.6013 31.9672 70.8023 31.9672C73.0386 31.9625 78.9437 32.0024 79.6752 31.986C80.4113 31.9555 80.7548 31.4857 80.7875 30.7012C80.7945 28.7752 80.7805 26.7764 80.7805 24.848C80.7805 24.6695 80.6403 24.5262 80.4603 24.5262H72.8306C72.8774 24.4299 73.5223 23.2203 73.8004 22.6683C73.9102 22.4499 74.0481 22.3559 74.2982 22.3559C76.5672 22.363 81.2268 22.3559 81.2899 22.3606C81.4137 22.3606 81.5072 22.2667 81.5072 22.1445C81.5002 21.7452 81.5072 21.3483 81.5025 20.949L81.5049 20.9467ZM73.0199 26.215H78.2217C78.4764 26.215 78.5184 26.2549 78.5184 26.4922C78.5184 27.636 78.5184 28.8081 78.5184 29.9543C78.5184 30.1727 78.4577 30.2361 78.238 30.2361C77.3617 30.2361 73.9126 30.2291 73.0667 30.2291C72.7442 30.2291 72.7302 30.0764 72.7302 29.7617C72.7302 28.6272 72.7348 27.6337 72.7372 26.5016C72.7372 26.2573 72.7745 26.2197 73.0199 26.2174V26.215Z" fill="black"/>
<path d="M112.002 30.2341C112.002 30.1425 111.929 30.0697 111.838 30.0697C111.838 30.0697 111.268 30.072 111.205 30.0697C110.924 30.0626 110.913 30.0391 110.913 29.7549C110.913 28.8248 110.889 23.9393 110.889 23.9393C110.889 23.8477 110.817 23.7749 110.726 23.7749H105.826C105.734 23.7749 105.662 23.8477 105.662 23.9393C105.662 23.9393 105.653 28.8694 105.646 29.4731C105.641 29.7361 105.554 29.924 105.281 30.011C105.195 30.0391 105.117 30.1307 105.115 30.2223C105.101 30.7485 105.106 31.2746 105.108 31.8007C105.108 31.8994 105.19 31.9839 105.288 31.9816C106.746 31.9675 107.648 31.3145 107.634 29.1302C107.627 27.9816 107.627 25.6939 107.634 25.6445C107.651 25.5271 107.721 25.459 107.838 25.459C108.118 25.4566 108.398 25.4566 108.679 25.459C108.782 25.459 108.849 25.506 108.854 25.6211C108.854 25.6892 108.901 30.3515 108.908 30.7649C108.908 31.5024 109.307 31.9652 110.02 31.9652H111.845C112.03 31.9652 112.004 31.7819 112.009 31.587C112.009 31.2182 112.002 30.2341 112.002 30.2341Z" fill="black"/>
<path d="M95.4338 26.4783C93.6812 26.4783 86.6544 26.4736 84.8901 26.4736C84.6354 26.4736 84.584 26.5253 84.5816 26.7766C84.5769 28.4161 84.5746 30.0555 84.5723 31.6974C84.5723 31.9839 84.5886 32.0004 84.8784 32.0004C86.187 31.9957 93.7466 31.9675 94.4757 31.9463C95.2795 31.9252 95.7282 31.4742 95.7352 30.6921C95.7422 29.4002 95.7469 28.0873 95.7469 26.7954C95.7469 26.6005 95.6978 26.4783 95.4361 26.4783H95.4338ZM93.5199 30.2622C93.5199 30.4079 93.4031 30.5277 93.2559 30.5277H86.9932C86.8483 30.5277 86.7291 30.4079 86.7291 30.2622V30.1542C86.7291 30.0062 86.8483 29.8888 86.9932 29.8888H93.2559C93.4031 29.8888 93.5199 30.0062 93.5199 30.1542V30.2622ZM93.5199 28.2658C93.5199 28.4114 93.4031 28.5312 93.2559 28.5312H86.9932C86.8483 28.5312 86.7291 28.4114 86.7291 28.2658V28.1554C86.7291 28.0097 86.8483 27.89 86.9932 27.89H93.2559C93.4031 27.89 93.5199 28.0097 93.5199 28.1554V28.2658Z" fill="black"/>
<path d="M58.238 28.5897C59.0278 28.3289 64.094 26.6355 65.6971 26.0976C65.8233 26.0553 65.9074 25.9355 65.9074 25.8016C65.9074 25.4258 65.9074 25.0477 65.8957 24.6719C65.8817 24.2091 65.8723 24.1904 65.433 24.3289C64.3371 24.6719 59.584 26.2409 58.2964 26.6636C58.1772 26.7036 58.1328 26.7505 58.1328 26.8844C58.1375 27.2602 58.1375 28.1598 58.1375 28.5145C58.1375 28.5685 58.1889 28.6061 58.2403 28.5897H58.238Z" fill="black"/>
<path d="M104.639 25.4449C104.536 25.3603 104.431 25.2546 104.431 25.1372C104.431 24.5241 104.44 21.2945 104.44 21.2945C104.44 21.2029 104.368 21.1301 104.277 21.1301C104.277 21.1301 102.992 21.1301 102.814 21.1301C102.756 21.1301 102.714 21.0738 102.725 21.015L102.835 20.5218C102.851 20.4443 102.788 20.3809 102.711 20.3809H100.895C100.797 20.3809 100.711 20.4396 100.68 20.5335L100.515 21.0221C100.491 21.0878 100.43 21.1325 100.365 21.1325C100.279 21.1325 99.678 21.1325 99.678 21.1325C99.5868 21.1325 99.5144 21.2053 99.5144 21.2969C99.5144 21.2969 99.5144 24.0074 99.5191 25.1325C99.5191 25.3509 99.449 25.4143 99.2387 25.4096C99.0354 25.4002 98.9769 25.4543 98.9746 25.6633V26.7508C98.9746 26.9011 99.1008 27.028 99.2504 27.0186C99.456 27.0092 99.5167 27.0679 99.5144 27.2675C99.5074 27.7279 99.5097 28.193 99.4887 28.651C99.47 29.1701 99.449 29.6891 99.3906 30.2035C99.3275 30.7226 99.2223 31.1971 99.1335 31.7138C99.0844 32.0098 99.255 31.9886 99.6009 31.9886H100.444C100.622 31.9886 100.769 31.8665 100.788 31.695C100.853 31.1383 100.926 30.5864 100.977 30.0274C100.977 30.0203 100.977 30.0133 100.977 30.0086L101.003 29.7079C101.036 29.3368 101.05 28.9634 101.05 28.5899V27.3098C101.05 27.1501 101.167 27.0209 101.309 27.0209H102.545C102.685 27.0209 102.8 27.1501 102.8 27.3098V30.0227C102.8 30.3116 102.739 30.3679 102.454 30.3585C102.316 30.3538 102.251 30.3914 102.225 30.5911C102.169 31.0115 102.134 31.2957 102.078 31.688C102.043 31.9252 102.066 31.9886 102.225 31.9886C102.548 31.9886 102.945 31.991 103.216 31.9886C103.763 31.9839 104.125 31.7678 104.314 31.2276C104.396 30.9927 104.429 30.7344 104.431 30.483C104.445 29.4261 104.438 28.3644 104.438 27.3051C104.438 27.1853 104.522 27.0843 104.644 27.0021C104.693 26.9692 104.723 26.8753 104.723 26.8072C104.73 26.4243 104.728 26.0415 104.718 25.6586C104.714 25.5858 104.688 25.4895 104.639 25.4496V25.4449ZM102.786 25.1489C102.786 25.2875 102.676 25.4002 102.536 25.4002H101.342C101.204 25.4002 101.092 25.2875 101.092 25.1489V22.9293C101.092 22.7907 101.204 22.678 101.342 22.678H102.536C102.674 22.678 102.786 22.7907 102.786 22.9293V25.1489Z" fill="black"/>
<path d="M111.337 23.0911C111.697 23.0911 111.725 23.0629 111.722 22.6941C111.722 22.471 111.722 21.562 111.722 21.562C111.722 21.4704 111.65 21.3976 111.559 21.3976C111.559 21.3976 110.049 21.3976 109.591 21.3976C109.449 21.3976 109.379 21.2754 109.313 21.1486C109.227 20.9772 109.168 20.8221 109.098 20.6413C109.035 20.4792 108.958 20.3993 108.787 20.4017C108.645 20.4017 107.484 20.3853 106.944 20.3853C106.787 20.3853 106.75 20.4463 106.789 20.6037C106.834 20.7845 106.881 20.9631 106.927 21.1439C106.981 21.353 106.953 21.3905 106.731 21.3929C106.154 21.3952 105.686 21.3976 105.13 21.3929C104.955 21.3929 104.892 21.454 104.892 21.6254C104.89 22.013 104.887 22.4005 104.89 22.7881C104.89 22.9548 105.025 23.0887 105.189 23.0887C106.226 23.0887 110.306 23.0887 111.335 23.0887L111.337 23.0911Z" fill="black"/>
<path d="M102.341 23.1616H101.539C101.448 23.1616 101.371 23.2368 101.371 23.3307V24.8175C101.371 24.9115 101.448 24.9866 101.539 24.9866H102.341C102.432 24.9866 102.507 24.9115 102.507 24.8175V23.3307C102.507 23.2368 102.432 23.1616 102.341 23.1616Z" fill="black"/>
<path d="M102.511 29.4589V27.6432C102.511 27.6291 102.511 27.6174 102.506 27.6033C102.487 27.5281 102.422 27.4741 102.342 27.4741H101.543C101.45 27.4741 101.375 27.5493 101.375 27.6432V29.4589C101.375 29.5528 101.45 29.628 101.543 29.628H102.342C102.436 29.628 102.511 29.5528 102.511 29.4589Z" fill="black"/>
<path d="M96.0206 20.8364H91.1647C91.0572 20.8364 90.9707 20.9163 90.9707 21.0173V26.0508C90.9707 26.1494 91.0572 26.2316 91.1647 26.2316H94.6886C95.5485 26.2692 96.2215 25.729 96.2192 24.5405V21.0173C96.2192 20.9163 96.1304 20.8364 96.0206 20.8364ZM94.2306 24.5005C94.2306 24.5804 94.1605 24.6462 94.074 24.6462H93.1089C93.0248 24.6462 92.9523 24.5804 92.9523 24.5005V22.5041C92.9523 22.4242 93.0248 22.3561 93.1089 22.3561H94.074C94.1605 22.3561 94.2306 22.4242 94.2306 22.5041V24.5005Z" fill="black"/>
<path d="M85.9393 26.2361C86.2408 26.2361 86.5235 26.0951 86.7058 25.8556L87.3531 25.0288C87.4068 24.9536 87.498 24.909 87.5938 25.0288L88.178 25.8744C88.3299 26.1022 88.5869 26.2361 88.858 26.2361H90.7812L89.344 24.4181H90.3652C90.4704 24.4181 90.5569 24.3382 90.5569 24.2419V23.1474C90.5592 23.0229 90.454 22.9219 90.3185 22.9172L88.8229 22.9219C88.6687 22.9219 88.5402 22.8233 88.5402 22.6683V22.5907C88.5472 22.431 88.6804 22.3676 88.8276 22.3606H90.3442C90.4494 22.3582 90.5405 22.2807 90.5405 22.1797L90.5218 21.0687C90.5218 20.9466 90.4424 20.8503 90.2811 20.8503H86.5469C86.409 20.8503 86.4207 20.7822 86.4184 20.7117V20.6178C86.416 20.5074 86.3786 20.4463 86.2478 20.4463H84.6494C84.5536 20.4486 84.4695 20.5027 84.4391 20.5849L83.918 22.3606H85.7921C85.9417 22.37 86.0632 22.4498 86.0632 22.6025V22.68C86.0632 22.835 85.9323 22.9172 85.7781 22.9172H84.1727C84.0325 22.9172 83.918 23.0206 83.918 23.1498V24.249C83.918 24.3429 84.0021 24.4181 84.1026 24.4181H85.4392L84.0021 26.2337H85.9416L85.9393 26.2361Z" fill="black"/>
<path d="M66.5322 21.2638C66.5322 21.0806 66.385 20.935 66.2051 20.935C66.2051 20.935 62.1344 20.942 61.9661 20.942C61.8656 20.942 61.7839 20.8598 61.7839 20.7588V20.3196C61.7839 20.1998 61.688 20.1035 61.5689 20.1035H59.6129C59.4938 20.1035 59.398 20.1998 59.398 20.3196V20.7612C59.398 20.8622 59.3185 20.9444 59.218 20.9444C58.6105 20.9444 54.5654 20.9444 54.5654 20.9444C54.3832 20.9444 54.2383 21.0924 54.2383 21.2732V23.568C54.2383 23.6549 54.3084 23.7254 54.3948 23.7254H56.3695C56.4559 23.7254 56.526 23.6549 56.526 23.568C56.526 23.568 56.526 23.1076 56.526 22.8798C56.5284 22.7741 56.6125 22.6895 56.72 22.6895H64.0973C64.2048 22.6895 64.2912 22.7764 64.2912 22.8845V23.6103C64.2912 23.9203 64.3917 23.9978 64.6932 23.9461C65.7681 23.6385 65.4783 23.723 66.3289 23.4787C66.5486 23.4012 66.5322 23.2932 66.5322 23.1452C66.5322 22.9644 66.5322 21.2685 66.5322 21.2685V21.2638Z" fill="black"/>
<path d="M66.1045 30.0954C66.1045 30.0954 57.6732 30.1001 57.6172 30.1025C57.5143 30.1025 57.4349 30.0461 57.4349 29.9333C57.4349 29.7595 57.4349 24.6533 57.4349 24.6533C57.4349 24.4935 57.3064 24.3667 57.1498 24.3667H55.5795C55.4206 24.3667 55.2944 24.4959 55.2944 24.6533C55.2944 24.6533 55.2803 30.3538 55.3411 30.9057C55.4346 31.6033 55.9557 31.8335 56.5048 31.911C56.7689 31.9439 66.1045 31.9815 66.1045 31.9815C66.2867 31.9815 66.4363 31.8335 66.4363 31.648V30.4266C66.4363 30.2434 66.2891 30.0931 66.1045 30.0931V30.0954Z" fill="black"/>
</g>
<defs>
<clipPath id="clip0_4908_3585">
<rect width="120" height="32" fill="white"/>
</clipPath>
</defs>
</svg>
